<svg width="93" height="11" viewBox="0 0 93 11" fill="none" xmlns="http://www.w3.org/2000/svg">
<path d="M7.776 1.624V10H6.096V6.436H2.508V10H0.828V1.624H2.508V5.068H6.096V1.624H7.776ZM15.7056 3.352V10H14.0136V9.16C13.7976 9.448 13.5136 9.676 13.1616 9.844C12.8176 10.004 12.4416 10.084 12.0336 10.084C11.5136 10.084 11.0536 9.976 10.6536 9.76C10.2536 9.536 9.93756 9.212 9.70556 8.788C9.48156 8.356 9.36956 7.844 9.36956 7.252V3.352H11.0496V7.012C11.0496 7.54 11.1816 7.948 11.4456 8.236C11.7096 8.516 12.0696 8.656 12.5256 8.656C12.9896 8.656 13.3536 8.516 13.6176 8.236C13.8816 7.948 14.0136 7.54 14.0136 7.012V3.352H15.7056ZM19.9072 10.108C19.3632 10.108 18.8752 10.012 18.4432 9.82C18.0112 9.62 17.6672 9.352 17.4112 9.016C17.1632 8.68 17.0272 8.308 17.0032 7.9H18.6952C18.7272 8.156 18.8512 8.368 19.0672 8.536C19.2912 8.704 19.5672 8.788 19.8952 8.788C20.2152 8.788 20.4632 8.724 20.6392 8.596C20.8232 8.468 20.9152 8.304 20.9152 8.104C20.9152 7.888 20.8032 7.728 20.5792 7.624C20.3632 7.512 20.0152 7.392 19.5352 7.264C19.0392 7.144 18.6312 7.02 18.3112 6.892C17.9992 6.764 17.7272 6.568 17.4952 6.304C17.2712 6.04 17.1592 5.684 17.1592 5.236C17.1592 4.868 17.2632 4.532 17.4712 4.228C17.6872 3.924 17.9912 3.684 18.3832 3.508C18.7832 3.332 19.2512 3.244 19.7872 3.244C20.5792 3.244 21.2112 3.444 21.6832 3.844C22.1552 4.236 22.4152 4.768 22.4632 5.44H20.8552C20.8312 5.176 20.7192 4.968 20.5192 4.816C20.3272 4.656 20.0672 4.576 19.7392 4.576C19.4352 4.576 19.1992 4.632 19.0312 4.744C18.8712 4.856 18.7912 5.012 18.7912 5.212C18.7912 5.436 18.9032 5.608 19.1272 5.728C19.3512 5.84 19.6992 5.956 20.1712 6.076C20.6512 6.196 21.0472 6.32 21.3592 6.448C21.6712 6.576 21.9392 6.776 22.1632 7.048C22.3952 7.312 22.5152 7.664 22.5232 8.104C22.5232 8.488 22.4152 8.832 22.1992 9.136C21.9912 9.44 21.6872 9.68 21.2872 9.856C20.8952 10.024 20.4352 10.108 19.9072 10.108ZM27.5862 3.256C28.3782 3.256 29.0182 3.508 29.5062 4.012C29.9942 4.508 30.2382 5.204 30.2382 6.1V10H28.5582V6.328C28.5582 5.8 28.4262 5.396 28.1622 5.116C27.8982 4.828 27.5382 4.684 27.0822 4.684C26.6182 4.684 26.2502 4.828 25.9782 5.116C25.7142 5.396 25.5822 5.8 25.5822 6.328V10H23.9022V3.352H25.5822V4.18C25.8062 3.892 26.0902 3.668 26.4342 3.508C26.7862 3.34 27.1702 3.256 27.5862 3.256ZM32.6878 2.56C32.3918 2.56 32.1438 2.468 31.9438 2.284C31.7518 2.092 31.6558 1.856 31.6558 1.576C31.6558 1.296 31.7518 1.064 31.9438 0.879999C32.1438 0.687999 32.3918 0.592 32.6878 0.592C32.9838 0.592 33.2278 0.687999 33.4198 0.879999C33.6198 1.064 33.7198 1.296 33.7198 1.576C33.7198 1.856 33.6198 2.092 33.4198 2.284C33.2278 2.468 32.9838 2.56 32.6878 2.56ZM33.5158 3.352V10H31.8358V3.352H33.5158ZM42.355 10L40.507 6.736H39.715V10H38.035V1.624H41.179C41.827 1.624 42.379 1.74 42.835 1.972C43.291 2.196 43.631 2.504 43.855 2.896C44.087 3.28 44.203 3.712 44.203 4.192C44.203 4.744 44.043 5.244 43.723 5.692C43.403 6.132 42.927 6.436 42.295 6.604L44.299 10H42.355ZM39.715 5.476H41.119C41.575 5.476 41.915 5.368 42.139 5.152C42.363 4.928 42.475 4.62 42.475 4.228C42.475 3.844 42.363 3.548 42.139 3.34C41.915 3.124 41.575 3.016 41.119 3.016H39.715V5.476ZM45.2905 6.652C45.2905 5.98 45.4225 5.384 45.6865 4.864C45.9585 4.344 46.3225 3.944 46.7785 3.664C47.2425 3.384 47.7585 3.244 48.3265 3.244C48.8225 3.244 49.2545 3.344 49.6225 3.544C49.9985 3.744 50.2985 3.996 50.5225 4.3V3.352H52.2145V10H50.5225V9.028C50.3065 9.34 50.0065 9.6 49.6225 9.808C49.2465 10.008 48.8105 10.108 48.3145 10.108C47.7545 10.108 47.2425 9.964 46.7785 9.676C46.3225 9.388 45.9585 8.984 45.6865 8.464C45.4225 7.936 45.2905 7.332 45.2905 6.652ZM50.5225 6.676C50.5225 6.268 50.4425 5.92 50.2825 5.632C50.1225 5.336 49.9065 5.112 49.6345 4.96C49.3625 4.8 49.0705 4.72 48.7585 4.72C48.4465 4.72 48.1585 4.796 47.8945 4.948C47.6305 5.1 47.4145 5.324 47.2465 5.62C47.0865 5.908 47.0065 6.252 47.0065 6.652C47.0065 7.052 47.0865 7.404 47.2465 7.708C47.4145 8.004 47.6305 8.232 47.8945 8.392C48.1665 8.552 48.4545 8.632 48.7585 8.632C49.0705 8.632 49.3625 8.556 49.6345 8.404C49.9065 8.244 50.1225 8.02 50.2825 7.732C50.4425 7.436 50.5225 7.084 50.5225 6.676ZM62.1113 3.256C62.9273 3.256 63.5833 3.508 64.0793 4.012C64.5833 4.508 64.8353 5.204 64.8353 6.1V10H63.1553V6.328C63.1553 5.808 63.0233 5.412 62.7593 5.14C62.4953 4.86 62.1353 4.72 61.6793 4.72C61.2233 4.72 60.8593 4.86 60.5873 5.14C60.3233 5.412 60.1913 5.808 60.1913 6.328V10H58.5113V6.328C58.5113 5.808 58.3793 5.412 58.1153 5.14C57.8513 4.86 57.4913 4.72 57.0353 4.72C56.5713 4.72 56.2033 4.86 55.9313 5.14C55.6673 5.412 55.5353 5.808 55.5353 6.328V10H53.8553V3.352H55.5353V4.156C55.7513 3.876 56.0273 3.656 56.3633 3.496C56.7073 3.336 57.0833 3.256 57.4913 3.256C58.0113 3.256 58.4753 3.368 58.8833 3.592C59.2913 3.808 59.6073 4.12 59.8313 4.528C60.0473 4.144 60.3593 3.836 60.7673 3.604C61.1833 3.372 61.6313 3.256 62.1113 3.256ZM65.9976 6.652C65.9976 5.98 66.1296 5.384 66.3936 4.864C66.6656 4.344 67.0336 3.944 67.4976 3.664C67.9616 3.384 68.4776 3.244 69.0456 3.244C69.4776 3.244 69.8896 3.34 70.2816 3.532C70.6736 3.716 70.9856 3.964 71.2176 4.276V1.12H72.9216V10H71.2176V9.016C71.0096 9.344 70.7176 9.608 70.3416 9.808C69.9656 10.008 69.5296 10.108 69.0336 10.108C68.4736 10.108 67.9616 9.964 67.4976 9.676C67.0336 9.388 66.6656 8.984 66.3936 8.464C66.1296 7.936 65.9976 7.332 65.9976 6.652ZM71.2296 6.676C71.2296 6.268 71.1496 5.92 70.9896 5.632C70.8296 5.336 70.6136 5.112 70.3416 4.96C70.0696 4.8 69.7776 4.72 69.4656 4.72C69.1536 4.72 68.8656 4.796 68.6016 4.948C68.3376 5.1 68.1216 5.324 67.9536 5.62C67.7936 5.908 67.7136 6.252 67.7136 6.652C67.7136 7.052 67.7936 7.404 67.9536 7.708C68.1216 8.004 68.3376 8.232 68.6016 8.392C68.8736 8.552 69.1616 8.632 69.4656 8.632C69.7776 8.632 70.0696 8.556 70.3416 8.404C70.6136 8.244 70.8296 8.02 70.9896 7.732C71.1496 7.436 71.2296 7.084 71.2296 6.676ZM74.1304 6.652C74.1304 5.98 74.2624 5.384 74.5264 4.864C74.7984 4.344 75.1624 3.944 75.6184 3.664C76.0824 3.384 76.5984 3.244 77.1664 3.244C77.6624 3.244 78.0944 3.344 78.4624 3.544C78.8384 3.744 79.1384 3.996 79.3624 4.3V3.352H81.0544V10H79.3624V9.028C79.1464 9.34 78.8464 9.6 78.4624 9.808C78.0864 10.008 77.6504 10.108 77.1544 10.108C76.5944 10.108 76.0824 9.964 75.6184 9.676C75.1624 9.388 74.7984 8.984 74.5264 8.464C74.2624 7.936 74.1304 7.332 74.1304 6.652ZM79.3624 6.676C79.3624 6.268 79.2824 5.92 79.1224 5.632C78.9624 5.336 78.7464 5.112 78.4744 4.96C78.2024 4.8 77.9104 4.72 77.5984 4.72C77.2864 4.72 76.9984 4.796 76.7344 4.948C76.4704 5.1 76.2544 5.324 76.0864 5.62C75.9264 5.908 75.8464 6.252 75.8464 6.652C75.8464 7.052 75.9264 7.404 76.0864 7.708C76.2544 8.004 76.4704 8.232 76.7344 8.392C77.0064 8.552 77.2944 8.632 77.5984 8.632C77.9104 8.632 78.2024 8.556 78.4744 8.404C78.7464 8.244 78.9624 8.02 79.1224 7.732C79.2824 7.436 79.3624 7.084 79.3624 6.676ZM86.3792 3.256C87.1712 3.256 87.8112 3.508 88.2992 4.012C88.7872 4.508 89.0312 5.204 89.0312 6.1V10H87.3512V6.328C87.3512 5.8 87.2192 5.396 86.9552 5.116C86.6912 4.828 86.3312 4.684 85.8752 4.684C85.4112 4.684 85.0432 4.828 84.7712 5.116C84.5072 5.396 84.3752 5.8 84.3752 6.328V10H82.6952V3.352H84.3752V4.18C84.5992 3.892 84.8832 3.668 85.2272 3.508C85.5792 3.34 85.9632 3.256 86.3792 3.256ZM91.4808 2.56C91.1848 2.56 90.9368 2.468 90.7368 2.284C90.5448 2.092 90.4488 1.856 90.4488 1.576C90.4488 1.296 90.5448 1.064 90.7368 0.879999C90.9368 0.687999 91.1848 0.592 91.4808 0.592C91.7768 0.592 92.0208 0.687999 92.2128 0.879999C92.4128 1.064 92.5128 1.296 92.5128 1.576C92.5128 1.856 92.4128 2.092 92.2128 2.284C92.0208 2.468 91.7768 2.56 91.4808 2.56ZM92.3088 3.352V10H90.6288V3.352H92.3088Z" fill="url(#paint0_linear_37_36)"/>
<defs>
<linearGradient id="paint0_linear_37_36" x1="47" y1="-3" x2="47" y2="15" gradientUnits="userSpaceOnUse">
<stop offset="0.505208" stop-color="#EE5626"/>
<stop offset="0.895833" stop-color="#35109F"/>
</linearGradient>
</defs>
</svg>